# xmcd
#
# Track frame offsets: 
#        150
#        903
#        12921
#        16396
#        19359
#        22636
#        28445
#        31607
#        38863
#        42190
#        46939
#        51048
#        56252
#        61922
#        66454
#        69855
#        72023
#        76083
#        78336
#        83081
#        89547
#        91873
#        95599
#        100589
#        108276
#        111127
#        114803
#        120186
#        125635
#        130506
#        134298
#        139661
#        147754
#        152027
#        155680
#        157717
#        162795
#        165544
#        169558
#        174984
#        177987
#        182767
#        189151
#        193091
#
# Disc length: 2741 seconds
#
# Revision: 0
# Processed by: cddbd v1.5.2PL0 Copyright (c) Steve Scherf et al.
# Submitted via: ExactAudioCopy v0.95b4
#
DISCID=130ab32c
DTITLE=Marty Laster - Getting In Blues Violin
DYEAR=2007
DGENRE=Blues
TTITLE0=Introduction
TTITLE1=Ear Training
TTITLE2=Slidin' Around
TTITLE3=Greasy Finger Blues
TTITLE4=Lazy Bones
TTITLE5=The Roller Coaster
TTITLE6=Practice With Rhythm
TTITLE7=Licks In The Key Of E
TTITLE8=Travelin' Railroad Man
TTITLE9=12-Bar Blues
TTITLE10=Dickson County Blues
TTITLE11=Licks In The Key Of D
TTITLE12=Corina, Corina
TTITLE13=Adam And Eve
TTITLE14=Improvisation Of Adam And Eve
TTITLE15=Adam And Eve Blues Practice
TTITLE16=Polly Put The Kettle On
TTITLE17=Example Of A Blues Break
TTITLE18=Kitchen Sink Blues
TTITLE19=Anticipation Blues
TTITLE20=Example
TTITLE21=Parlez Nous A Boire
TTITLE22=Example
TTITLE23=Example
TTITLE24=Example
TTITLE25=Darktown Strutters Ball
TTITLE26=Examples
TTITLE27=Drunken Sailor
TTITLE28=A Gypsy Dream
TTITLE29=Gypsy Blues
TTITLE30=Second Position
TTITLE31=Three-Note Patterns, Example
TTITLE32=Double-Stop Shuffle
TTITLE33=Yodeling Licks
TTITLE34=Example
TTITLE35=Example
TTITLE36=Chro-Magnon Man
TTITLE37=Good Neighbors
TTITLE38=Example
TTITLE39=Example
TTITLE40=Example
TTITLE41=Jim Tolles Fiddle/Viola Lee Blues, Ray Chesna
TTITLE42=Howard Armstrong/Vine Street Drag
TTITLE43=Marty Laster with Cliff Wagner/Old 17, The Back Door
EXTD=
EXTT0=
EXTT1=
EXTT2=
EXTT3=
EXTT4=
EXTT5=
EXTT6=
EXTT7=
EXTT8=
EXTT9=
EXTT10=
EXTT11=
EXTT12=
EXTT13=
EXTT14=
EXTT15=
EXTT16=
EXTT17=
EXTT18=
EXTT19=
EXTT20=
EXTT21=
EXTT22=
EXTT23=
EXTT24=
EXTT25=
EXTT26=
EXTT27=
EXTT28=
EXTT29=
EXTT30=
EXTT31=
EXTT32=
EXTT33=
EXTT34=
EXTT35=
EXTT36=
EXTT37=
EXTT38=
EXTT39=
EXTT40=
EXTT41=
EXTT42=
EXTT43=
PLAYORDER=
